<svg width="76" height="76" viewBox="0 0 76 76" fill="none" xmlns="http://www.w3.org/2000/svg">
<path d="M37.9145 0C41.2219 0.549122 44.5418 1.01935 47.8271 1.67261C49.8784 2.07972 50.8189 3.41465 50.4402 4.92C50.0331 6.5295 48.6161 7.11649 46.4827 6.55475C28.7246 1.89037 10.9886 12.1375 6.2264 29.8104C1.00975 49.1622 14.5674 68.7728 34.5409 70.7673C54.77 72.787 71.8717 56.4207 70.622 36.16C70.4799 33.872 69.9182 31.5997 69.4543 29.3401C69.063 27.434 69.6247 26.0643 71.1332 25.6572C72.607 25.2596 73.8378 26.1716 74.3869 28.0683C80.342 48.6225 67.04 70.7231 46.0535 75.1413C24.2496 79.7268 3.77114 65.4875 0.406976 43.3995C-2.73627 22.7728 12.7243 2.75823 33.4553 0.618551C34.9164 0.467069 36.3871 0.372393 37.8514 0.249314C37.8735 0.167261 37.8924 0.0820527 37.9145 0Z" fill="#A0A0A0"/>
<path d="M40.5054 50.8913C40.1992 54.8645 39.6343 55.8965 37.8576 55.8776C36.166 55.8586 35.6895 54.9781 35.2098 50.8376C33.7802 50.8376 32.3253 50.8471 30.8705 50.8376C28.9202 50.8218 27.7556 49.8404 27.784 48.2593C27.8156 46.7287 28.9328 45.7914 30.8074 45.7819C33.8559 45.7661 36.9014 45.7914 39.9499 45.7725C41.793 45.7598 42.9291 44.7657 42.9164 43.2383C42.9038 41.7108 41.774 40.7609 39.9121 40.742C38.4951 40.7262 37.0749 40.7483 35.6548 40.7357C31.4449 40.6978 28.147 37.807 27.803 33.8559C27.4464 29.7911 30.2172 26.3481 34.4208 25.6285C34.6765 25.5843 34.9352 25.5654 35.2666 25.5244C35.579 23.5677 34.6197 20.6075 37.9018 20.6202C41.0482 20.6328 40.2497 23.4541 40.4801 25.578C41.976 25.578 43.4309 25.5686 44.8857 25.578C46.8392 25.5938 48.0006 26.5721 47.9721 28.1501C47.9437 29.6712 46.8139 30.6211 44.9488 30.6306C41.9003 30.6464 38.8548 30.6211 35.8063 30.64C33.9569 30.6495 32.8303 31.6373 32.8397 33.1711C32.8524 34.6922 33.9885 35.6516 35.8441 35.6705C37.2611 35.6863 38.6813 35.6642 40.1014 35.6768C44.3208 35.7147 47.6029 38.5928 47.9564 42.5535C48.3161 46.6119 45.5484 50.0581 41.3417 50.784C41.086 50.8282 40.8273 50.8471 40.5022 50.8881L40.5054 50.8913Z" fill="#A0A0A0"/>
<path d="M58.0742 21.574C58.0742 20.0686 58.0742 18.5664 58.0742 17.0611C58.0742 12.5419 58.0679 8.01951 58.0742 3.5003C58.0774 1.49317 58.9894 0.357055 60.5736 0.33812C62.1547 0.319185 63.1236 1.47423 63.1299 3.44665C63.1394 8.96627 63.1331 14.4859 63.1331 20.0055C63.1331 20.5199 63.1331 21.0343 63.1331 21.9306C64.2818 20.8071 65.1812 19.9045 66.1059 19.0272C67.3903 17.8059 68.801 17.7112 69.8835 18.7463C71.0101 19.8225 70.9502 21.3152 69.6531 22.6344C67.3682 24.9571 65.0645 27.2609 62.7417 29.5489C61.2395 31.029 59.9867 31.0416 58.5066 29.5867C56.1838 27.3019 53.88 24.9949 51.592 22.6754C50.276 21.3404 50.1845 19.8856 51.2828 18.7873C52.381 17.6891 53.8201 17.7996 55.174 19.0935C55.6284 19.529 56.0828 19.9676 56.5089 20.4347C56.9002 20.8608 57.2505 21.3247 57.6198 21.7696C57.7712 21.7034 57.9227 21.6403 58.0742 21.574Z" fill="#A0A0A0"/>
</svg>
