<svg width="76" height="76" viewBox="0 0 76 76" fill="none" xmlns="http://www.w3.org/2000/svg">
<path d="M0 29.7151C0.0681988 15.1952 10.8021 2.60717 25.0942 0.357816C39.6028 -1.92418 53.8207 6.91595 58.0728 20.967C60.5932 29.2997 59.6236 37.297 55.2084 44.8107C54.6006 45.8434 54.7488 46.3627 55.5465 47.152C61.6636 53.2027 67.7244 59.3098 73.8148 65.3902C75.5406 67.1113 76.4479 69.0817 75.7896 71.5477C74.6807 75.7081 69.8623 77.358 66.4583 74.7377C65.9512 74.349 65.4946 73.8861 65.0409 73.435C59.0602 67.4585 53.0735 61.485 47.1195 55.4788C46.39 54.7429 45.9037 54.5529 44.9045 55.1524C26.5442 66.1677 2.894 54.5381 0.314308 33.2553C0.17198 32.0802 0.103781 30.8932 0 29.7151ZM29.6724 56.4076C44.2462 56.4996 56.35 44.4991 56.4212 29.8843C56.4923 15.1566 44.5991 3.1057 29.88 2.99294C15.2321 2.88018 3.13122 14.8777 3.05116 29.5964C2.9711 44.2706 14.9296 56.3127 29.6754 56.4076H29.6724ZM54.9475 59.1347C57.0972 61.2832 59.2944 63.4762 61.4916 65.6721C63.6236 67.8027 65.7496 69.9423 67.8964 72.0611C68.7681 72.9216 69.9068 73.4528 70.9772 72.8029C71.8134 72.2955 72.7948 71.3192 72.8808 70.4675C72.9757 69.5239 72.359 68.2627 71.6503 67.5268C67.7837 63.4969 63.7926 59.5858 59.84 55.639C59.5761 55.3749 59.2677 55.1553 59.1313 55.0426C57.7081 56.4314 56.3737 57.737 54.9445 59.1318L54.9475 59.1347ZM48.8541 52.7517C50.0817 53.9861 51.4249 55.3364 52.8304 56.7459C54.1736 55.464 55.5465 54.1553 56.7088 53.0455C55.1847 51.4816 53.8622 50.1284 52.7118 48.9503C51.4575 50.1848 50.1291 51.4935 48.8511 52.7517H48.8541Z" fill="#A0A0A0"/>
<path d="M29.7732 5.9517C42.8496 5.97544 53.5331 16.7355 53.4649 29.8103C53.3937 42.8464 42.7102 53.47 29.6961 53.4463C16.6197 53.4225 5.93625 42.6624 6.00444 29.5877C6.07561 16.5515 16.7591 5.92796 29.7732 5.9517ZM29.7673 50.4699C41.1743 50.4521 50.5086 41.0807 50.4879 29.6678C50.4701 18.2519 41.1061 8.91028 29.7021 8.93105C18.2951 8.95182 8.96072 18.3202 8.98147 29.7331C9.00223 41.149 18.3633 50.4906 29.7673 50.4699Z" fill="#A0A0A0"/>
<path d="M30.5739 11.8776C37.7288 12.5601 42.9742 16.0143 46.0491 22.6051C46.4939 23.5576 46.7815 24.6141 45.5658 25.1482C44.2759 25.715 43.7748 24.7417 43.2856 23.7238C40.691 18.326 36.3886 15.3644 30.4167 14.8956C29.3493 14.8125 28.2966 14.6819 28.3115 13.3821C28.3263 11.9815 29.4293 11.8301 30.5739 11.8806V11.8776Z" fill="#A0A0A0"/>
<path d="M45.6665 31.3738C45.3077 30.7773 44.6316 30.1512 44.685 29.5933C44.7325 29.1007 45.6991 28.246 46.0668 28.3351C46.6361 28.4745 47.3388 29.2431 47.4189 29.8218C47.4841 30.2758 46.6954 30.8544 46.2832 31.3767C46.0786 31.3767 45.8711 31.3767 45.6665 31.3738Z" fill="#A0A0A0"/>
</svg>
