<svg width="85" height="76" viewBox="0 0 85 76" fill="none" xmlns="http://www.w3.org/2000/svg">
<path d="M42.2255 75.9938C31.7117 75.9938 21.1979 76.0004 10.6841 75.9938C1.90166 75.9871 -2.71093 67.9746 1.6902 60.3486C12.2139 42.1064 22.7442 23.8675 33.2878 5.63524C37.6426 -1.89491 46.8546 -1.87508 51.2227 5.6749C61.7695 23.9039 72.3031 42.1428 82.8268 60.385C87.2214 68.001 82.5757 75.9904 73.7636 75.9971C63.2498 76.0037 52.736 75.9971 42.2222 75.9971L42.2255 75.9938ZM42.2783 71.0243C52.6831 71.0243 63.0945 70.8591 73.4959 71.097C78.3068 71.2094 81.0062 66.9404 78.4488 62.5987C67.8458 44.5878 57.4873 26.4315 47.033 8.33473C44.4194 3.81466 40.0547 3.84109 37.4245 8.3909C26.9702 26.491 16.5225 44.5911 6.0748 62.6946C3.46452 67.2179 5.66509 71.021 10.8956 71.0243C21.3565 71.0309 31.8174 71.0243 42.2783 71.0243Z" fill="#A0A0A0"/>
<path d="M44.6277 49.5013H39.8565V24.8623H44.6277V49.5013Z" fill="#A0A0A0"/>
<path d="M42.166 54.5396C44.0031 54.4933 45.5494 56.0066 45.5494 57.8438C45.5494 59.6181 44.0989 61.1016 42.3279 61.1446C40.4941 61.1909 38.9444 59.6776 38.9444 57.8405C38.9444 56.0661 40.3917 54.5859 42.166 54.5429V54.5396Z" fill="#A0A0A0"/>
</svg>
